<?xml version="1.0" encoding="UTF-8" standalone="no"?>
<!DOCTYPE svg PUBLIC "-//W3C//DTD SVG 1.1//EN" "http://www.w3.org/Graphics/SVG/1.1/DTD/svg11.dtd">
<svg version="1.1" xmlns="http://www.w3.org/2000/svg" xmlns:xlink="http://www.w3.org/1999/xlink" preserveAspectRatio="xMidYMid meet" viewBox="0 0 640 640" width="640" height="640"><defs><path d="M300 440L300 420L320 420L320 440L300 440ZM280 420L280 400L300 400L300 420L280 420ZM320 420L320 400L340 400L340 420L320 420ZM260 400L260 380L280 380L280 400L260 400ZM340 400L340 380L360 380L360 400L340 400ZM240 380L240 360L260 360L260 380L240 380ZM360 380L360 360L380 360L380 380L360 380ZM220 360L220 340L240 340L240 360L220 360ZM380 360L380 340L400 340L400 360L380 360ZM400 340L400 320L420 320L420 340L400 340ZM200 340L200 320L220 320L220 340L200 340ZM180 320L180 300L200 300L200 320L180 320ZM420 320L420 300L440 300L440 320L420 320ZM160 300L160 220L180 220L180 300L160 300ZM440 300L440 220L460 220L460 300L440 300ZM300 240L300 220L320 220L320 240L300 240ZM420 220L420 200L440 200L440 220L420 220ZM320 220L320 200L340 200L340 220L320 220ZM280 220L280 200L300 200L300 220L280 220ZM180 220L180 200L200 200L200 220L180 220ZM200 200L200 180L280 180L280 200L200 200ZM340 200L340 180L420 180L420 200L340 200Z" id="f53KkpZzzD"></path><path d="M220 220L240 220L240 240L220 240L220 220Z" id="a9q7ySRzYV"></path><path d="M200 240L220 240L220 280L200 280L200 240Z" id="abEkSqyE3"></path></defs><g><g><g><use xlink:href="#f53KkpZzzD" opacity="1" fill="#830000" fill-opacity="1"></use><g><use xlink:href="#f53KkpZzzD" opacity="1" fill-opacity="0" stroke="#000000" stroke-width="1" stroke-opacity="0"></use></g></g><g><use xlink:href="#a9q7ySRzYV" opacity="1" fill="#ffffff" fill-opacity="1"></use></g><g><use xlink:href="#abEkSqyE3" opacity="1" fill="#ffffff" fill-opacity="1"></use></g></g></g></svg>